# xmcd
#
# Track frame offsets:
#	150
#	13740
#	28294
#	47808
#	64583
#	86076
#	103051
#	124583
#	137790
#	154108
#
# Disc length: 2220 seconds
#
# Revision: 1
# Processed by: cddbd v1.5PL3 Copyright (c) Steve Scherf et al.
# Submitted via: audiograbber 1.82.02
#
DISCID=8608aa0a
DTITLE=The George Bushes - Handsome
DYEAR=2004
DGENRE=nu-grass
TTITLE0=Clover
TTITLE1=Handsome
TTITLE2=Electric
TTITLE3=Best Dancer
TTITLE4=A Lotta' Good Laughs
TTITLE5=Funeral For The Girl
TTITLE6=Killer In The Woods
TTITLE7=Redemption
TTITLE8=1999
TTITLE9=Blood Blister
EXTD=
EXTT0=
EXTT1=
EXTT2=
EXTT3=
EXTT4=
EXTT5=
EXTT6=
EXTT7=
EXTT8=
EXTT9=
PLAYORDER=
